<svg width="176" height="69" viewBox="0 0 176 69" fill="none" xmlns="http://www.w3.org/2000/svg">
<path d="M59.8469 4.61571L69.0112 31L75.2931 30.963L84.4574 4.61571H78.6928L72.1891 24.718H72.1522L65.6854 4.61571H59.8469ZM100.745 21.8727C100.708 15.9602 97.5298 11.3042 91.2108 11.3042C85.4462 11.3042 81.2336 15.5537 81.2336 21.4292C81.2336 27.5264 85.3353 31.6282 91.1369 31.6282C95.9038 31.6282 99.2666 29.1154 100.449 25.3832H95.2017C94.4996 26.8243 92.9476 27.4525 91.1369 27.4525C88.5502 27.4525 86.6287 25.6788 86.2222 22.9073H100.708C100.745 22.5009 100.745 22.0944 100.745 21.8727ZM86.2592 19.5446C86.7026 16.9579 88.5133 15.2212 91.1369 15.2212C94.0932 15.2212 95.4604 17.3644 95.7191 19.5446H86.2592ZM102.22 4.61571V31H107.468V4.61571H102.22ZM107.976 11.8954C110.231 18.2513 112.485 24.6811 114.739 31H120.577C122.831 24.5702 125.049 18.3252 127.34 11.8954H121.908C120.393 16.921 118.804 21.7988 117.769 25.7897H117.658C116.365 21.0227 114.924 16.6623 113.519 11.8954H107.976ZM146.192 21.8727C146.155 15.9602 142.977 11.3042 136.658 11.3042C130.894 11.3042 126.681 15.5537 126.681 21.4292C126.681 27.5264 130.783 31.6282 136.585 31.6282C141.351 31.6282 144.714 29.1154 145.897 25.3832H140.649C139.947 26.8243 138.395 27.4525 136.585 27.4525C133.998 27.4525 132.076 25.6788 131.67 22.9073H146.155C146.192 22.5009 146.192 22.0944 146.192 21.8727ZM131.707 19.5446C132.15 16.9579 133.961 15.2212 136.585 15.2212C139.541 15.2212 140.908 17.3644 141.167 19.5446H131.707ZM157.793 15.8124V11.8954H153.913V5.39172L148.814 7.64584V11.8954H145.673V15.8124H148.814V24.0159C148.814 28.1546 150.033 31.2217 155.096 31.1109L157.608 31.0739V26.9721H156.426C154.209 26.9721 153.913 25.6418 153.913 23.203V15.8124H157.793ZM86.7485 52.5748H81.3903C80.3187 55.3093 78.1755 56.8613 74.3324 56.8613C69.7133 56.8613 66.3136 53.0552 66.3136 47.8448C66.3136 42.5236 69.6763 38.7544 74.3324 38.7544C77.6212 38.7544 80.0601 40.0108 81.4273 43.0409H86.7855C85.1226 37.4611 80.9469 34.1353 74.3324 34.1353C66.4984 34.1353 60.8816 39.7152 60.8816 47.8448C60.8816 56.0483 66.4614 61.4804 74.2585 61.4804C80.7622 61.4804 85.3443 58.1177 86.7485 52.5748ZM105.383 56.0853V49.5816C105.383 44.3343 102.611 41.2672 96.9945 41.2672C91.969 41.2672 89.2344 44.5191 88.6432 47.7709H93.484C93.9644 46.108 95.2578 45.0733 97.0315 45.0733C98.99 45.0733 100.283 45.8863 100.283 47.3275C100.283 48.9903 98.953 49.249 96.5141 49.5816C93.8905 49.9511 87.7933 50.6163 87.7933 55.7897C87.7933 59.1524 90.4539 61.5173 94.5187 61.5173C97.8814 61.5173 99.5073 59.8175 100.357 58.2655H100.394V59.3002C100.394 59.7806 100.468 60.4457 100.579 61H105.752C105.457 59.7067 105.383 57.5634 105.383 56.0853ZM100.357 52.1313C100.357 56.4918 98.2879 57.7851 96.0338 57.7851C93.9275 57.7851 93.0036 56.7135 93.0036 55.494C93.0036 54.2376 93.9644 53.4247 96.4402 52.9443C98.8791 52.427 99.9138 51.6509 100.357 50.801V52.1313ZM118.745 41.3781C115.53 41.3781 113.645 43.3735 113.054 44.8516H113.017V41.8954H107.622V68.3906H113.128V58.2655H113.165C113.83 59.5958 115.53 61.5173 118.708 61.5173C123.77 61.5173 127.761 57.6373 127.761 51.4292C127.761 45.2581 123.807 41.3781 118.745 41.3781ZM117.599 57.4895C114.2 57.4895 112.574 54.5333 112.574 51.4292C112.574 48.3621 114.347 45.4429 117.599 45.4429C120.777 45.4429 122.588 48.1404 122.588 51.4292C122.588 54.755 120.851 57.4895 117.599 57.4895ZM134.518 39.3087V34.6157H129.123V39.3087H134.518ZM129.086 61H134.334V41.8954H129.086V61ZM147.143 45.8124V41.8954H143.263V35.3917L138.164 37.6458V41.8954H135.023V45.8124H138.164V54.0159C138.164 58.1546 139.383 61.2217 144.446 61.1109L146.958 61.0739V56.9721H145.776C143.559 56.9721 143.263 55.6418 143.263 53.203V45.8124H147.143ZM165.077 56.0853V49.5816C165.077 44.3343 162.306 41.2672 156.689 41.2672C151.664 41.2672 148.929 44.5191 148.338 47.7709H153.179C153.659 46.108 154.952 45.0733 156.726 45.0733C158.685 45.0733 159.978 45.8863 159.978 47.3275C159.978 48.9903 158.648 49.249 156.209 49.5816C153.585 49.9511 147.488 50.6163 147.488 55.7897C147.488 59.1524 150.149 61.5173 154.213 61.5173C157.576 61.5173 159.202 59.8175 160.052 58.2655H160.089V59.3002C160.089 59.7806 160.163 60.4457 160.274 61H165.447C165.151 59.7067 165.077 57.5634 165.077 56.0853ZM160.052 52.1313C160.052 56.4918 157.983 57.7851 155.728 57.7851C153.622 57.7851 152.698 56.7135 152.698 55.494C152.698 54.2376 153.659 53.4247 156.135 52.9443C158.574 52.427 159.608 51.6509 160.052 50.801V52.1313ZM167.317 34.6157V61H172.564V34.6157H167.317Z" fill="#0B0216"/>
<path d="M57.5142 35.3322L57.9208 34.9255H57.3457H22.6219C19.3556 34.9255 16.2231 36.223 13.9134 38.5326L8.54261 43.9035L8.37416 44.0719L8.54261 44.2404L25.1108 60.8086L25.1806 60.8784H25.2793H38.0791H38.6542L38.2475 60.4717L22.086 44.3101H48.4375H48.5362L48.606 44.2404L57.5142 35.3322Z" fill="#7000FF" stroke="#7000FF" stroke-width="0.476446"/>
<path d="M1.83155 30.6144L1.42488 31.021H2H36.7239C39.9901 31.021 43.1227 29.7235 45.4323 27.4139L50.8031 22.0431L50.9715 21.8746L50.8031 21.7062L34.2349 5.13795L34.1651 5.06817H34.0664H21.2666H20.6915L21.0982 5.47485L37.2597 21.6364H10.9082H10.8095L10.7397 21.7062L1.83155 30.6144Z" fill="#7000FF" stroke="#7000FF" stroke-width="0.476446"/>
</svg>
