<svg width="246" height="40" viewBox="0 0 246 40" fill="none" xmlns="http://www.w3.org/2000/svg">
<path d="M37.0698 6.47841L45.6735 31.0508L51.1111 31.0164L59.7149 6.47841H54.7935L48.4267 25.8197H48.3579L42.06 6.47841H37.0698ZM77.4008 22.5158C77.3663 17.2503 74.6475 12.742 68.6937 12.742C63.3938 12.742 59.5393 16.6653 59.5393 22.1029C59.5393 27.7813 63.2906 31.6014 68.6593 31.6014C72.9612 31.6014 76.0586 29.3644 77.1254 25.8197H72.7203C72.0664 27.3684 70.4833 28.0223 68.6249 28.0223C66.0438 28.0223 64.1165 26.2327 63.7724 23.3762H77.4008V22.5158ZM63.8068 20.4165C64.2198 17.8354 65.9749 16.1146 68.6249 16.1146C71.4814 16.1146 72.858 18.1107 73.1333 20.4165H63.8068ZM79.2274 6.47841V31.0508H83.667V6.47841H79.2274ZM84.5962 13.2582C86.7299 19.1776 88.8292 25.1658 90.963 31.0508H95.9188L102.286 13.2582H97.6739C96.1941 17.973 94.6454 22.6535 93.5441 26.6457H93.4409C92.1331 22.0684 90.6877 17.801 89.3111 13.2582H84.5962ZM119.953 22.5158C119.919 17.2503 117.2 12.742 111.246 12.742C105.946 12.742 102.092 16.6653 102.092 22.1029C102.092 27.7813 105.843 31.6014 111.212 31.6014C115.514 31.6014 118.611 29.3644 119.678 25.8197H115.273C114.619 27.3684 113.036 28.0223 111.177 28.0223C108.596 28.0223 106.669 26.2327 106.325 23.3762H119.953V22.5158ZM106.359 20.4165C106.772 17.8354 108.527 16.1146 111.177 16.1146C114.034 16.1146 115.41 18.1107 115.686 20.4165H106.359ZM130.659 16.6309V13.2582H127.08V7.33879L122.778 9.23162V13.2582H119.921V16.6309H122.778V24.9937C122.778 28.5729 124.017 31.1884 128.422 31.1196H130.556V27.6093H129.42C127.527 27.6093 127.08 26.4392 127.08 24.3743V16.6309H130.659ZM161.814 23.3418H157.236C156.238 25.9573 154.105 27.5749 150.353 27.5749C145.604 27.5749 142.438 23.7548 142.438 18.799C142.438 13.74 145.57 9.95434 150.353 9.95434C153.692 9.95434 155.963 11.2965 157.271 14.1874H161.814C160.299 9.16279 156.514 6.03102 150.353 6.03102C142.885 6.03102 137.826 11.3998 137.826 18.799C137.826 26.2671 142.851 31.4982 150.319 31.4982C156.411 31.4982 160.575 28.2287 161.814 23.3418ZM179.273 26.7145V20.2789C179.273 15.9081 177.208 12.7075 171.633 12.7075C166.953 12.7075 164.509 15.7705 163.993 18.6958H168.157C168.604 17.0438 169.912 16.0114 171.667 16.0114C173.698 16.0114 174.937 16.8374 174.937 18.2484C174.937 19.7626 173.836 20.1068 171.53 20.4509C169.052 20.8295 163.201 21.3113 163.201 26.1983C163.201 29.1924 165.542 31.5326 169.43 31.5326C172.803 31.5326 174.283 29.743 175.006 28.332H175.04V29.2268C175.04 29.8118 175.075 30.4657 175.178 31.0508H179.617C179.376 29.9151 179.273 28.0911 179.273 26.7145ZM170.635 28.2632C168.639 28.2632 167.606 27.2651 167.606 25.9918C167.606 24.6496 168.673 23.9269 171.048 23.445C173.663 22.9288 174.593 22.1373 175.006 21.2769V22.7912C175.006 26.921 172.906 28.2632 170.635 28.2632ZM191.927 12.7764C188.864 12.7764 187.006 14.738 186.421 16.2179H186.386V13.2582H181.844V37.9338H186.455V28.2632H186.49C187.143 29.6398 188.899 31.4982 191.893 31.4982C196.711 31.4982 200.256 27.8502 200.256 22.1373C200.256 16.4244 196.745 12.7764 191.927 12.7764ZM190.964 28.0223C187.625 28.0223 186.042 25.1658 186.042 22.1373C186.042 19.1087 187.729 16.2867 190.964 16.2867C194.13 16.2867 195.885 18.8678 195.885 22.1373C195.885 25.4067 194.199 28.0223 190.964 28.0223ZM206.589 10.6082V6.47841H202.012V10.6082H206.589ZM201.943 31.0508H206.382V13.2582H201.943V31.0508ZM218.217 16.6309V13.2582H214.638V7.33879L210.336 9.23162V13.2582H207.48V16.6309H210.336V24.9937C210.336 28.5729 211.575 31.1884 215.98 31.1196H218.114V27.6093H216.978C215.085 27.6093 214.638 26.4392 214.638 24.3743V16.6309H218.217ZM235.035 26.7145V20.2789C235.035 15.9081 232.97 12.7075 227.395 12.7075C222.714 12.7075 220.271 15.7705 219.755 18.6958H223.919C224.366 17.0438 225.674 16.0114 227.429 16.0114C229.46 16.0114 230.699 16.8374 230.699 18.2484C230.699 19.7626 229.597 20.1068 227.292 20.4509C224.814 20.8295 218.963 21.3113 218.963 26.1983C218.963 29.1924 221.303 31.5326 225.192 31.5326C228.565 31.5326 230.045 29.743 230.768 28.332H230.802V29.2268C230.802 29.8118 230.836 30.4657 230.94 31.0508H235.379C235.138 29.9151 235.035 28.0911 235.035 26.7145ZM226.397 28.2632C224.401 28.2632 223.368 27.2651 223.368 25.9918C223.368 24.6496 224.435 23.9269 226.81 23.445C229.425 22.9288 230.355 22.1373 230.768 21.2769V22.7912C230.768 26.921 228.668 28.2632 226.397 28.2632ZM237.605 6.47841V31.0508H242.045V6.47841H237.605Z" fill="#0B0216"/>
<path d="M14.9866 39.9982C16.2141 38.6117 17.4087 37.2623 18.6015 35.915C18.9225 35.5524 18.5824 35.3824 18.3817 35.1956C16.3864 33.3311 14.3877 31.4746 12.3887 29.6142C11.7405 29.0108 11.0942 28.4094 10.2955 27.666C10.7458 27.6079 11.0324 27.5365 11.3203 27.5338C16.0684 27.4963 20.8172 27.4745 25.5647 27.4252C25.8276 27.4218 26.1729 27.3336 26.3373 27.1522C27.9352 25.3927 29.5009 23.6034 31.0748 21.8215C31.1295 21.7597 31.1601 21.6755 31.265 21.4951C30.7213 21.4889 30.2618 21.4745 29.8012 21.478C23.502 21.5185 17.2004 21.5494 10.9 21.6077C8.83903 21.6285 7.09941 22.4481 5.7078 24.02C4.52958 25.3509 3.35137 26.6817 2.14397 28.0456L14.9866 39.9982Z" fill="#7000FF"/>
<path d="M16.3357 0.00180138C15.1082 1.38829 13.9136 2.7377 12.7208 4.08505C12.3998 4.44764 12.7398 4.61759 12.9405 4.80438C14.9358 6.66892 16.9346 8.52541 18.9335 10.3858C19.5818 10.9892 20.228 11.5906 21.0268 12.334C20.5764 12.3921 20.2898 12.4635 20.002 12.4662C15.2539 12.5037 10.5051 12.5255 5.75752 12.5748C5.49465 12.5782 5.14934 12.6664 4.98501 12.8478C3.38711 14.6073 1.82133 16.3966 0.247514 18.1785C0.192798 18.2403 0.162165 18.3245 0.0573039 18.5049C0.600925 18.5111 1.06045 18.5255 1.52107 18.522C7.8203 18.4815 14.1219 18.4506 20.4222 18.3923C22.4832 18.3715 24.2229 17.5519 25.6145 15.98C26.7927 14.6491 27.9709 13.3183 29.1783 11.9544L16.3357 0.00180138Z" fill="#7000FF"/>
</svg>
